<svg xmlns="http://www.w3.org/2000/svg" viewBox="0 0 100 100" width="100" height="100">
  <defs>
    <linearGradient id="g1" x1="0" y1="0" x2="1" y2="1">
      <stop offset="0%" stop-color="#4a4d54"/>
      <stop offset="100%" stop-color="#24262b"/>
    </linearGradient>
  </defs>
  <circle cx="50" cy="50" r="50" fill="url(#g1)"/>
  <!-- Hair back -->
  <circle cx="50" cy="38" r="26" fill="#18191c"/>
  <ellipse cx="50" cy="22" r="14" fill="#18191c"/>
  <!-- Neck -->
  <rect x="44" y="58" width="12" height="16" fill="#c2c6cc" rx="3"/>
  <!-- Shoulders / Clothes -->
  <path d="M22 88 Q34 70 50 70 Q66 70 78 88 Z" fill="#2d3038"/>
  <path d="M38 72 Q50 80 62 72" stroke="#454954" stroke-width="2" fill="none"/>
  <!-- Face -->
  <ellipse cx="50" cy="46" r="17" fill="#d8dce2"/>
  <!-- Hair front bangs -->
  <path d="M33 38 Q50 30 67 38 Q64 30 50 26 Q36 30 33 38 Z" fill="#18191c"/>
  <path d="M33 38 Q32 50 34 54 Q38 42 42 36 Z" fill="#18191c"/>
  <path d="M67 38 Q68 50 66 54 Q62 42 58 36 Z" fill="#18191c"/>
  <!-- Eyes -->
  <circle cx="43" cy="46" r="2.2" fill="#2d3038"/>
  <circle cx="57" cy="46" r="2.2" fill="#2d3038"/>
  <!-- Smile -->
  <path d="M45 54 Q50 58 55 54" stroke="#4a4e58" stroke-width="2" stroke-linecap="round" fill="none"/>
</svg>
