<svg xmlns="http://www.w3.org/2000/svg" viewBox="0 0 100 100" width="100" height="100">
  <defs>
    <linearGradient id="g6" x1="0" y1="0" x2="1" y2="1">
      <stop offset="0%" stop-color="#4f535d"/>
      <stop offset="100%" stop-color="#282a30"/>
    </linearGradient>
  </defs>
  <circle cx="50" cy="50" r="50" fill="url(#g6)"/>
  <!-- Body -->
  <path d="M20 90 Q34 70 50 70 Q66 70 80 90 Z" fill="#383d47"/>
  <!-- Head -->
  <circle cx="50" cy="46" r="18" fill="#d9dee6"/>
  <!-- Curly / textured hair -->
  <path d="M30 40 Q32 20 50 20 Q68 20 70 40 Q62 25 50 26 Q38 25 30 40 Z" fill="#1b1c20"/>
  <circle cx="34" cy="30" r="6" fill="#1b1c20"/>
  <circle cx="66" cy="30" r="6" fill="#1b1c20"/>
  <circle cx="50" cy="24" r="7" fill="#1b1c20"/>
  <!-- Eyes -->
  <circle cx="43" cy="45" r="2.2" fill="#202227"/>
  <circle cx="57" cy="45" r="2.2" fill="#202227"/>
  <!-- Broad Smile -->
  <path d="M43 53 Q50 60 57 53" stroke="#202227" stroke-width="2" stroke-linecap="round" fill="none"/>
</svg>
